<svg preserveAspectRatio="none" overflow="visible" style="display: block;" width="21.4646" height="23.4163" viewBox="0 0 21.4646 23.4163" fill="none" xmlns="http://www.w3.org/2000/svg">
<g id="bell">
<path id="Path 16429" d="M20.489 10.6172C19.9503 10.6172 19.5134 10.1802 19.5134 9.64155C19.5134 6.90478 18.4479 4.33292 16.5131 2.39706C16.1317 2.01564 16.1317 1.39911 16.5131 1.01751C16.8945 0.636091 17.5112 0.636091 17.8927 1.01751C20.1963 3.32104 21.4646 6.38385 21.4646 9.64154C21.4646 10.1802 21.0276 10.6172 20.489 10.6172Z" fill="white"/>
<path id="Path 16430" d="M0.975613 10.6172C0.43716 10.6172 0 10.1802 0 9.64154C0 6.38383 1.26842 3.32103 3.57195 1.01751C3.95337 0.636091 4.57008 0.636091 4.9515 1.01751C5.3331 1.39911 5.3331 2.01564 4.9515 2.39706C3.01671 4.33186 1.95141 6.9048 1.95141 9.64155C1.95141 10.1802 1.51424 10.6172 0.975613 10.6172Z" fill="white"/>
<path id="Path 16431" d="M19.8833 16.5017C18.408 15.2547 17.5621 13.4321 17.5621 11.5012V8.78109C17.5621 5.34776 15.0117 2.50558 11.708 2.02948V0.975615C11.708 0.436086 11.2709 0 10.7324 0C10.1938 0 9.75665 0.436089 9.75665 0.975615V2.02948C6.45214 2.50559 3.90261 5.34776 3.90261 8.78109V11.5012C3.90261 13.4321 3.05669 15.2547 1.57282 16.5094C1.19318 16.8343 0.975586 17.3065 0.975586 17.806C0.975586 18.7477 1.74146 19.5136 2.68313 19.5136H18.7817C19.7232 19.5136 20.4891 18.7477 20.4891 17.806C20.4891 17.3065 20.2715 16.8343 19.8833 16.5017Z" fill="white"/>
<path id="Path 16432" d="M10.7326 23.4163C12.4994 23.4163 13.9776 22.1566 14.3172 20.4893H7.14795C7.48738 22.1566 8.96555 23.4163 10.7326 23.4163Z" fill="white"/>
</g>
</svg>
